<svg xmlns="http://www.w3.org/2000/svg" xmlns:xlink="http://www.w3.org/1999/xlink" width="1366" zoomAndPan="magnify" viewBox="0 0 1024.5 210" height="280" preserveAspectRatio="xMidYMid meet" version="1.0"><defs><g/><clipPath id="b18778f734"><path d="M 28.871094 39.75 L 183.292969 39.75 L 183.292969 195.671875 L 28.871094 195.671875 Z M 28.871094 39.75 " clip-rule="nonzero"/></clipPath><clipPath id="54884f4dea"><path d="M 200 33 L 1001 33 L 1001 209.949219 L 200 209.949219 Z M 200 33 " clip-rule="nonzero"/></clipPath><clipPath id="66aa36d218"><rect x="0" width="801" y="0" height="177"/></clipPath></defs><g clip-path="url(#b18778f734)"><path fill="#8c52ff" d="M 114.621094 194.484375 C 109.214844 195.804688 103.582031 195.429688 97.980469 194.535156 L 94.953125 181.941406 C 91.21875 180.910156 87.683594 180.121094 83.929688 178.664062 L 74.625 188.75 C 69.542969 186.488281 64.664062 183.785156 60.214844 180.222656 L 64.1875 167.117188 L 56.609375 159.824219 C 53.328125 159.234375 47.851562 163.066406 43.414062 163.386719 C 40.195312 159.015625 37.269531 154.398438 35.0625 148.9375 L 44.851562 139.753906 C 44.324219 136.441406 43.324219 132.878906 42.273438 129.316406 L 29.246094 125.425781 C 28.828125 119.925781 28.652344 114.65625 29.40625 109.234375 L 42.15625 105.75 L 43.867188 99.136719 C 44.183594 97.914062 45.445312 96.042969 44.480469 94.808594 C 41.734375 91.289062 38.121094 89.046875 35.207031 85.6875 C 37.324219 80.488281 40.25 75.765625 43.8125 71.417969 C 49.457031 72.113281 55.035156 76.820312 58.125 73.527344 L 63.96875 67.304688 L 60.207031 54.875 C 64.296875 51.203125 69.394531 48.507812 74.664062 46.351562 C 78.03125 49.511719 80.457031 53.230469 84.027344 55.644531 L 94.855469 53.074219 L 97.804688 40.476562 C 103.171875 39.460938 108.691406 39.617188 114.25 40.285156 L 117.78125 53.046875 L 128.605469 55.582031 C 132.082031 53.03125 134.511719 49.34375 137.941406 46.195312 C 142.703125 48.210938 147.132812 50.8125 151.253906 54.085938 C 152.410156 55 151.519531 56.9375 151.199219 58.015625 L 148.4375 67.324219 L 155.828125 75.160156 L 168.769531 71.429688 C 172.253906 75.695312 174.773438 80.359375 177.242188 85.6875 L 168.410156 94.125 C 166.324219 96.117188 169.75 100.613281 170.074219 105.546875 L 182.8125 109.09375 C 183.589844 114.609375 183.753906 120.171875 182.917969 125.566406 L 170.316406 128.699219 L 167.40625 139.269531 L 177.152344 149.027344 C 175.109375 154.429688 172.253906 159.191406 168.75 163.457031 C 164.582031 163.160156 156.925781 158.019531 154.785156 160.371094 L 148.457031 167.332031 C 148.730469 171.363281 151.039062 175.132812 151.71875 179.269531 C 152.234375 182.417969 141.417969 186.671875 138.195312 188.742188 L 128.621094 178.777344 L 117.558594 181.996094 C 115.929688 185.585938 115.914062 189.78125 114.613281 194.492188 Z M 154.105469 117.476562 C 154.105469 91.03125 132.664062 69.59375 106.210938 69.59375 C 79.757812 69.59375 58.3125 91.027344 58.3125 117.476562 C 58.3125 143.921875 79.757812 165.359375 106.210938 165.359375 C 132.664062 165.359375 154.105469 143.921875 154.105469 117.476562 Z M 154.105469 117.476562 " fill-opacity="1" fill-rule="nonzero"/></g><g clip-path="url(#54884f4dea)"><g transform="matrix(1, 0, 0, 1, 200, 33)"><g clip-path="url(#66aa36d218)"><g fill="#ffffff" fill-opacity="1"><g transform="translate(0.802278, 152.297715)"><g><path d="M 1.375 -113.578125 L 1.375 -141.96875 L 101.1875 -141.96875 L 101.1875 -113.578125 L 67.453125 -113.578125 L 67.453125 0 L 35.109375 0 L 35.109375 -113.578125 Z M 1.375 -113.578125 "/></g></g></g><g fill="#ffffff" fill-opacity="1"><g transform="translate(89.928346, 152.297715)"><g><path d="M 99.640625 -39.921875 L 35.625 -39.921875 C 35.625 -33.722656 37.628906 -29.132812 41.640625 -26.15625 C 45.660156 -23.175781 50.019531 -21.6875 54.71875 -21.6875 C 59.65625 -21.6875 63.554688 -22.34375 66.421875 -23.65625 C 69.285156 -24.976562 72.554688 -27.585938 76.234375 -31.484375 L 98.25 -20.484375 C 89.070312 -5.109375 73.816406 2.578125 52.484375 2.578125 C 39.171875 2.578125 27.753906 -1.976562 18.234375 -11.09375 C 8.710938 -20.21875 3.953125 -31.203125 3.953125 -44.046875 C 3.953125 -56.898438 8.710938 -67.914062 18.234375 -77.09375 C 27.753906 -86.269531 39.171875 -90.859375 52.484375 -90.859375 C 66.484375 -90.859375 77.867188 -86.8125 86.640625 -78.71875 C 95.421875 -70.632812 99.8125 -59.078125 99.8125 -44.046875 C 99.8125 -41.984375 99.753906 -40.609375 99.640625 -39.921875 Z M 36.484375 -56.78125 L 70.03125 -56.78125 C 69.34375 -61.375 67.535156 -64.898438 64.609375 -67.359375 C 61.691406 -69.828125 57.9375 -71.0625 53.34375 -71.0625 C 48.289062 -71.0625 44.273438 -69.742188 41.296875 -67.109375 C 38.316406 -64.472656 36.710938 -61.03125 36.484375 -56.78125 Z M 36.484375 -56.78125 "/></g></g></g><g fill="#ffffff" fill-opacity="1"><g transform="translate(193.681221, 152.297715)"><g><path d="M 57.296875 -65.90625 C 51.566406 -65.90625 46.632812 -63.78125 42.5 -59.53125 C 38.375 -55.289062 36.3125 -50.1875 36.3125 -44.21875 C 36.3125 -38.144531 38.375 -32.984375 42.5 -28.734375 C 46.632812 -24.492188 51.566406 -22.375 57.296875 -22.375 C 60.054688 -22.375 62.664062 -22.71875 65.125 -23.40625 C 67.59375 -24.09375 69.398438 -24.78125 70.546875 -25.46875 L 72.09375 -26.5 L 82.421875 -5.328125 C 81.617188 -4.753906 80.5 -4.035156 79.0625 -3.171875 C 77.632812 -2.316406 74.367188 -1.144531 69.265625 0.34375 C 64.160156 1.832031 58.679688 2.578125 52.828125 2.578125 C 39.867188 2.578125 28.484375 -1.976562 18.671875 -11.09375 C 8.859375 -20.21875 3.953125 -31.144531 3.953125 -43.875 C 3.953125 -56.726562 8.859375 -67.769531 18.671875 -77 C 28.484375 -86.238281 39.867188 -90.859375 52.828125 -90.859375 C 58.679688 -90.859375 64.070312 -90.171875 69 -88.796875 C 73.9375 -87.421875 77.4375 -86.039062 79.5 -84.65625 L 82.421875 -82.59375 L 72.09375 -61.78125 C 68.3125 -64.53125 63.378906 -65.90625 57.296875 -65.90625 Z M 57.296875 -65.90625 "/></g></g></g><g fill="#ffffff" fill-opacity="1"><g transform="translate(278.163247, 152.297715)"><g><path d="M 10.328125 0 L 10.328125 -147.984375 L 40.78125 -147.984375 L 40.78125 -78.984375 L 41.125 -78.984375 C 49.039062 -86.898438 57.472656 -90.859375 66.421875 -90.859375 C 70.785156 -90.859375 75.113281 -90.285156 79.40625 -89.140625 C 83.707031 -87.992188 87.835938 -86.210938 91.796875 -83.796875 C 95.753906 -81.390625 98.96875 -77.976562 101.4375 -73.5625 C 103.90625 -69.144531 105.140625 -64.007812 105.140625 -58.15625 L 105.140625 0 L 74.6875 0 L 74.6875 -49.90625 C 74.6875 -54.488281 73.222656 -58.5 70.296875 -61.9375 C 67.367188 -65.382812 63.550781 -67.109375 58.84375 -67.109375 C 54.257812 -67.109375 50.101562 -65.328125 46.375 -61.765625 C 42.644531 -58.210938 40.78125 -54.257812 40.78125 -49.90625 L 40.78125 0 Z M 10.328125 0 "/></g></g></g><g fill="#8c52ff" fill-opacity="1"><g transform="translate(391.919108, 152.297715)"><g><path d="M 10.328125 -141.96875 L 61.09375 -141.96875 C 74.738281 -141.96875 85.863281 -138.320312 94.46875 -131.03125 C 103.070312 -123.75 107.375 -113.34375 107.375 -99.8125 C 107.375 -89.363281 104.765625 -80.613281 99.546875 -73.5625 C 94.328125 -66.507812 87.242188 -61.546875 78.296875 -58.671875 L 127.171875 0 L 86.046875 0 L 42.671875 -56.09375 L 42.671875 0 L 10.328125 0 Z M 42.671875 -78.984375 L 46.46875 -78.984375 C 49.445312 -78.984375 51.96875 -79.039062 54.03125 -79.15625 C 56.09375 -79.269531 58.441406 -79.671875 61.078125 -80.359375 C 63.722656 -81.046875 65.847656 -82.019531 67.453125 -83.28125 C 69.054688 -84.539062 70.429688 -86.375 71.578125 -88.78125 C 72.734375 -91.195312 73.3125 -94.125 73.3125 -97.5625 C 73.3125 -101.007812 72.734375 -103.9375 71.578125 -106.34375 C 70.429688 -108.75 69.054688 -110.582031 67.453125 -111.84375 C 65.847656 -113.113281 63.722656 -114.09375 61.078125 -114.78125 C 58.441406 -115.46875 56.09375 -115.867188 54.03125 -115.984375 C 51.96875 -116.097656 49.445312 -116.15625 46.46875 -116.15625 L 42.671875 -116.15625 Z M 42.671875 -78.984375 "/></g></g></g><g fill="#8c52ff" fill-opacity="1"><g transform="translate(510.984917, 152.297715)"><g><path d="M 99.640625 -39.921875 L 35.625 -39.921875 C 35.625 -33.722656 37.628906 -29.132812 41.640625 -26.15625 C 45.660156 -23.175781 50.019531 -21.6875 54.71875 -21.6875 C 59.65625 -21.6875 63.554688 -22.34375 66.421875 -23.65625 C 69.285156 -24.976562 72.554688 -27.585938 76.234375 -31.484375 L 98.25 -20.484375 C 89.070312 -5.109375 73.816406 2.578125 52.484375 2.578125 C 39.171875 2.578125 27.753906 -1.976562 18.234375 -11.09375 C 8.710938 -20.21875 3.953125 -31.203125 3.953125 -44.046875 C 3.953125 -56.898438 8.710938 -67.914062 18.234375 -77.09375 C 27.753906 -86.269531 39.171875 -90.859375 52.484375 -90.859375 C 66.484375 -90.859375 77.867188 -86.8125 86.640625 -78.71875 C 95.421875 -70.632812 99.8125 -59.078125 99.8125 -44.046875 C 99.8125 -41.984375 99.753906 -40.609375 99.640625 -39.921875 Z M 36.484375 -56.78125 L 70.03125 -56.78125 C 69.34375 -61.375 67.535156 -64.898438 64.609375 -67.359375 C 61.691406 -69.828125 57.9375 -71.0625 53.34375 -71.0625 C 48.289062 -71.0625 44.273438 -69.742188 41.296875 -67.109375 C 38.316406 -64.472656 36.710938 -61.03125 36.484375 -56.78125 Z M 36.484375 -56.78125 "/></g></g></g><g fill="#8c52ff" fill-opacity="1"><g transform="translate(614.393624, 152.297715)"><g><path d="M 10.328125 0 L 10.328125 -88.28125 L 40.78125 -88.28125 L 40.78125 -78.984375 L 41.125 -78.984375 C 49.039062 -86.898438 57.472656 -90.859375 66.421875 -90.859375 C 70.785156 -90.859375 75.113281 -90.285156 79.40625 -89.140625 C 83.707031 -87.992188 87.835938 -86.210938 91.796875 -83.796875 C 95.753906 -81.390625 98.96875 -77.976562 101.4375 -73.5625 C 103.90625 -69.144531 105.140625 -64.007812 105.140625 -58.15625 L 105.140625 0 L 74.6875 0 L 74.6875 -49.90625 C 74.6875 -54.488281 73.222656 -58.5 70.296875 -61.9375 C 67.367188 -65.382812 63.550781 -67.109375 58.84375 -67.109375 C 54.257812 -67.109375 50.101562 -65.328125 46.375 -61.765625 C 42.644531 -58.210938 40.78125 -54.257812 40.78125 -49.90625 L 40.78125 0 Z M 10.328125 0 "/></g></g></g><g fill="#8c52ff" fill-opacity="1"><g transform="translate(727.09353, 152.297715)"><g><path d="M 15.484375 -88.28125 L 15.484375 -121.140625 L 45.9375 -121.140625 L 45.9375 -88.28125 L 64.53125 -88.28125 L 64.53125 -65.046875 L 45.9375 -65.046875 L 45.9375 -37 C 45.9375 -28.851562 48.234375 -24.78125 52.828125 -24.78125 C 53.972656 -24.78125 55.175781 -25.007812 56.4375 -25.46875 C 57.695312 -25.925781 58.671875 -26.382812 59.359375 -26.84375 L 60.40625 -27.53125 L 67.96875 -2.921875 C 61.425781 0.742188 53.96875 2.578125 45.59375 2.578125 C 39.863281 2.578125 34.929688 1.578125 30.796875 -0.421875 C 26.671875 -2.429688 23.546875 -5.128906 21.421875 -8.515625 C 19.296875 -11.898438 17.773438 -15.457031 16.859375 -19.1875 C 15.941406 -22.914062 15.484375 -26.898438 15.484375 -31.140625 L 15.484375 -65.046875 L 2.75 -65.046875 L 2.75 -88.28125 Z M 15.484375 -88.28125 "/></g></g></g></g></g></g></svg>